<?xml version="1.0" encoding="UTF-8"?>
<svg height="40px" viewBox="0 0 630 188" version="1.1" xmlns="http://www.w3.org/2000/svg" xmlns:xlink="http://www.w3.org/1999/xlink">
    <title>logo</title>
    <desc>Created with Sketch.</desc>
    <g id="Page-1" stroke="none" stroke-width="1" fill="none" fill-rule="evenodd">
        <g id="logo" fill="#ED553B">
            <g>
                <path d="M296.3,135 C291.6,129.1 289.3,121.6 289.3,108.6 L289.3,69.3 L304.9,69.3 L304.9,111 C304.9,118.9 306.5,123.1 309.3,126.4 C312.7,130.5 318.3,133.1 324.2,133.1 C333.7,133.1 341.4,127.4 345.8,122.1 L345.8,69.2 L361.4,69.2 L361.4,146.2 L346.3,146.2 L346.3,139.2 C342.9,142.5 334.3,147.9 323.7,147.9 C312.7,147.9 302.7,143 296.3,135 Z M435.5,139.3 C429.3,144.9 420.9,148 411.8,148 C404.9,148 397.7,146 392.5,142.9 C380.9,136 372.9,123.3 372.9,107.9 C372.9,92.5 381.1,79.6 392.7,72.7 C397.9,69.6 404.3,67.8 411.5,67.8 C419.8,67.8 428.2,70.4 435.1,76.2 L435.1,30.2 L450.7,30.2 L450.7,146.4 L435.6,146.4 L435.6,139.3 L435.5,139.3 Z M435,93.4 C430.3,87.2 422.4,82.4 413.1,82.4 C398.2,82.4 388.4,94.4 388.4,107.8 C388.4,121.6 399,133.2 413.9,133.2 C421.8,133.2 429.8,129.3 435,122.2 L435,93.4 Z M501.8,67.7 C524.6,67.7 541.6,84.9 541.6,107.8 C541.6,130.7 524.6,147.9 501.8,147.9 C479,147.9 462,130.7 462,107.8 C462,84.9 479,67.7 501.8,67.7 Z M501.8,133.2 C516,133.2 526,121.9 526,107.8 C526,93.7 516,82.4 501.8,82.4 C487.6,82.4 477.6,93.7 477.6,107.8 C477.6,121.9 487.5,133.2 501.8,133.2 Z M590.4,147.9 C583.5,147.9 576.3,145.9 571.1,142.8 C559.5,135.9 551.5,123.2 551.5,107.8 C551.5,92.4 559.7,79.5 571.3,72.6 C576.5,69.5 582.9,67.7 590.1,67.7 C598.8,67.7 607.1,70.3 614.2,76.4 L614.2,69.4 L629.3,69.4 L629.3,143 C629.3,154.5 627.8,162.2 624.7,168.2 C618.5,180.2 606.7,187.2 591.5,187.2 C571.5,187.2 558.9,177 554,169.4 L565.5,158.8 C571.1,166.2 578.3,172.6 590.9,172.6 C599.3,172.6 605.8,169.5 609.6,163.8 C612.4,159.5 613.9,153.6 613.9,144 L613.9,139.7 C607.4,145 599.5,147.9 590.4,147.9 Z M613.6,93.4 C608.9,87.2 601,82.4 591.7,82.4 C576.8,82.4 567,94.4 567,107.8 C567,121.6 577.6,133.2 592.5,133.2 C600.4,133.2 608.4,129.3 613.6,122.2 L613.6,93.4 Z M237.4,147.9 C230.5,147.9 223.3,145.9 218.1,142.8 C206.5,135.9 198.5,123.2 198.5,107.8 C198.5,92.4 206.7,79.5 218.3,72.6 C223.5,69.5 229.9,67.7 237.1,67.7 C245.8,67.7 254.1,70.3 261.2,76.4 L261.2,69.4 L276.3,69.4 L276.3,143 C276.3,154.5 274.8,162.2 271.7,168.2 C265.5,180.2 253.7,187.2 238.5,187.2 C218.5,187.2 205.9,177 201,169.4 L212.5,158.8 C218.1,166.2 225.3,172.6 237.9,172.6 C246.3,172.6 252.8,169.5 256.6,163.8 C259.4,159.5 260.9,153.6 260.9,144 L260.9,139.7 C254.4,145 246.5,147.9 237.4,147.9 Z M260.6,93.4 C255.9,87.2 248,82.4 238.7,82.4 C223.8,82.4 214,94.4 214,107.8 C214,121.6 224.6,133.2 239.5,133.2 C247.4,133.2 255.4,129.3 260.6,122.2 L260.6,93.4 Z" id="Shape" fill-rule="nonzero"></path>
                <g id="Group" fill-rule="nonzero">
                    <path d="M71,52.7 C76.2,57.8 83.6,60.3 92.7,60.3 C101.8,60.3 109.2,57.7 114.4,52.7 C119.9,47.4 122.6,39.9 122.6,30.3 C122.6,20.7 119.8,13.2 114.4,7.9 C109.2,2.8 101.8,0.3 92.7,0.3 C83.6,0.3 76.2,2.9 71,7.9 C65.5,13.2 62.8,20.7 62.8,30.3 C62.7,39.9 65.5,47.4 71,52.7 Z M80.3,17.7 C83,15.1 87.1,13.9 92.7,13.9 C98.3,13.9 102.4,15.2 105.1,17.7 C107.8,20.3 109.2,24.6 109.2,30.4 C109.2,36.2 107.8,40.4 105.1,43.1 C102.4,45.7 98.3,47 92.7,47 C87.1,47 83,45.7 80.3,43.1 C77.6,40.5 76.2,36.2 76.2,30.4 C76.2,24.6 77.6,20.3 80.3,17.7 Z" id="Shape"></path>
                    <path d="M48.2,83.9 C56,78.4 60.6,71.8 61.8,64.3 C62.9,57.1 60.8,49.6 55.6,42.1 C50.3,34.6 44,30.1 36.9,28.7 C29.4,27.2 21.7,29.3 13.9,34.8 C6.1,40.3 1.5,46.9 0.3,54.4 C-0.8,61.6 1.3,69.1 6.5,76.6 C11.8,84.1 18.1,88.6 25.2,90 C26.8,90.3 28.3,90.5 29.9,90.5 C35.9,90.4 42,88.2 48.2,83.9 Z M17.5,68.8 C14.3,64.2 13,60.1 13.5,56.4 C14.1,52.6 16.8,49.1 21.5,45.8 C25.4,43.1 29,41.7 32.2,41.7 C32.9,41.7 33.6,41.8 34.3,41.9 C37.9,42.6 41.4,45.3 44.6,49.8 C47.8,54.4 49.1,58.5 48.6,62.2 C48,65.9 45.3,69.5 40.6,72.8 C35.9,76.1 31.6,77.4 27.9,76.7 C24.2,76 20.7,73.4 17.5,68.8 Z" id="Shape"></path>
                    <path d="M185,54.4 C183.8,46.9 179.2,40.3 171.4,34.8 C163.6,29.3 155.8,27.3 148.4,28.7 C141.3,30.1 135,34.6 129.7,42.1 C124.4,49.6 122.3,57.1 123.5,64.3 C124.7,71.8 129.3,78.4 137.1,83.9 C143.3,88.2 149.5,90.4 155.4,90.4 C157,90.4 158.5,90.2 160.1,89.9 C167.2,88.5 173.5,84 178.8,76.5 C184,69 186.1,61.6 185,54.4 Z M167.8,68.8 C164.6,73.4 161.1,76 157.5,76.7 C153.8,77.4 149.5,76.1 144.8,72.8 C140.1,69.5 137.4,65.9 136.8,62.2 C136.2,58.6 137.6,54.4 140.8,49.8 C144,45.2 147.5,42.6 151.1,41.9 C151.8,41.8 152.4,41.7 153.2,41.7 C156.4,41.7 160,43.1 163.9,45.8 C168.6,49.1 171.3,52.7 171.9,56.4 C172.3,60.1 171,64.2 167.8,68.8 Z" id="Shape"></path>
                    <path d="M149.2,110.2 C144.2,105.4 138.2,102.2 131.7,100.9 C130.7,91.2 127.2,83.3 121.3,77.6 C114.5,71 104.9,67.7 92.7,67.7 C92.7,67.7 92.7,67.7 92.7,67.7 C92.7,67.7 92.7,67.7 92.7,67.7 C80.6,67.7 71,71 64.1,77.6 C58.2,83.3 54.7,91.1 53.7,100.9 C47.3,102.2 41.2,105.4 36.2,110.2 C29.1,117 25.5,126.9 25.5,139.6 C25.5,152.2 29.1,162.1 36.2,169 C43,175.6 52.6,178.9 64.8,178.9 C71.2,178.9 77.2,177.4 82.5,176.1 C86.4,175.1 90,174.2 92.7,174.2 C92.7,174.2 92.7,174.2 92.7,174.2 C92.7,174.2 92.7,174.2 92.7,174.2 C95.4,174.2 99,175.1 102.9,176.1 C108.2,177.4 114.2,178.9 120.6,178.9 C132.7,178.9 142.3,175.6 149.2,169 C156.3,162.2 159.9,152.3 159.9,139.6 C159.9,127 156.3,117.1 149.2,110.2 Z M139.8,159.2 C135.6,163.3 129.1,165.3 120.6,165.3 C115.9,165.3 110.9,164.1 106.1,162.9 C101.4,161.7 97,160.7 92.7,160.7 C92.7,160.7 92.7,160.7 92.7,160.7 C92.7,160.7 92.7,160.7 92.7,160.7 C88.4,160.7 84,161.8 79.3,162.9 C74.5,164.1 69.6,165.3 64.8,165.3 C56.3,165.3 49.8,163.2 45.6,159.2 C41.2,155 39,148.4 39,139.5 C39,130.7 41.2,124.1 45.6,119.8 C48.1,117.4 50.9,115.7 53.9,114.7 C55.7,129.2 62.3,146.2 76.4,146.2 C80.9,146.2 84.7,144.3 87.2,140.9 C89.2,138.2 90.3,134.6 90.3,130.5 C90.3,119.4 82.3,104.7 67.2,101.1 C68,95.2 70.1,90.6 73.4,87.4 C77.6,83.3 84.1,81.3 92.6,81.3 C92.6,81.3 92.6,81.3 92.6,81.3 C92.6,81.3 92.6,81.3 92.6,81.3 C101.1,81.3 107.6,83.4 111.8,87.4 C115.1,90.6 117.2,95.2 118,101.1 C102.9,104.7 94.9,119.5 94.9,130.5 C94.9,134.6 96,138.2 98,140.9 C100.5,144.3 104.4,146.2 108.8,146.2 C122.9,146.2 129.6,129.1 131.3,114.7 C134.3,115.7 137.1,117.4 139.6,119.8 C144,124 146.2,130.6 146.2,139.5 C146.4,148.4 144.2,155 139.8,159.2 Z M67,113.8 C72.2,113.8 81.3,130.7 76.5,132.9 C72.4,134.7 68,123.4 67,113.8 Z M118.4,113.8 C117.4,123.4 113,134.7 108.9,132.9 C104,130.7 113.2,113.8 118.4,113.8 Z" id="Shape"></path>
                </g>
            </g>
        </g>
    </g>
</svg>